<?xml version="1.0" standalone="no"?>
<!DOCTYPE svg PUBLIC "-//W3C//DTD SVG 20010904//EN" "http://www.w3.org/TR/2001/REC-SVG-20010904/DTD/svg10.dtd">
<svg version="1.0" xmlns="http://www.w3.org/2000/svg" width="700.000000pt" height="700.000000pt"
    viewBox="0 0 700.000000 700.000000" preserveAspectRatio="xMidYMid meet">
    <metadata>
        Created by potrace 1.11, written by Peter Selinger 2001-2013
    </metadata>
    <g transform="translate(0.000000,700.000000) scale(0.100000,-0.100000)" fill="#000000" stroke="none">
        <path
            d="M 3778 6059 C 3933 6048 4145 6013 4270 5979 C 4879 5810 5400 5436 5739 4925 C 5848 4760 5977 4510 5958 4499 C 5951 4495 5855 4467 5745 4436 C 5635 4406 5361 4330 5137 4267 L 4729 4153 L 4683 4224 C 4625 4315 4437 4502 4339 4568 C 4188 4669 4011 4743 3843 4777 C 3720 4801 3466 4801 3350 4776 C 2956 4691 2627 4444 2451 4100 C 2347 3897 2307 3733 2307 3505 C 2306 3145 2431 2839 2685 2585 C 2871 2398 3088 2280 3350 2224 C 3464 2199 3719 2199 3840 2223 C 4018 2258 4189 2330 4340 2433 C 4442 2503 4603 2666 4675 2773 C 4707 2821 4740 2860 4747 2860 C 4755 2860 4814 2844 4878 2825 C 4942 2806 5141 2748 5320 2696 C 5915 2523 5965 2508 5968 2505 C 5975 2498 5844 2245 5785 2150 C 5164 1151 3932 697 2816 1057 C 2311 1220 1867 1537 1539 1970 C 1285 2305 1114 2728 1048 3185 C 1028 3323 1032 3716 1054 3865 C 1224 4988 2084 5858 3201 6036 C 3400 6067 3572 6074 3778 6059 Z M 3808 4355 C 4081 4298 4315 4111 4430 3858 C 4508 3686 4525 3469 4475 3275 C 4452 3186 4377 3040 4311 2957 C 4202 2820 4026 2707 3845 2659 C 3732 2629 3538 2629 3425 2659 C 3173 2726 2963 2897 2854 3125 C 2783 3272 2754 3430 2770 3585 C 2793 3806 2879 3981 3043 4136 C 3158 4246 3298 4320 3455 4355 C 3537 4373 3723 4373 3808 4355 Z"
            style="paint-order: stroke markers; fill-rule: evenodd; fill: rgb(117, 218, 255);"></path>

    </g>
</svg>